<svg xmlns="http://www.w3.org/2000/svg" xmlns:xlink="http://www.w3.org/1999/xlink" id="Layer_1" data-name="Layer 1" viewBox="0 0 98.34 149.85"><defs><style>.cls-1,.cls-12,.cls-13,.cls-14,.cls-15,.cls-16,.cls-3,.cls-5,.cls-7,.cls-9{fill:none;}.cls-2{fill:#081c3c;}.cls-10,.cls-11,.cls-2,.cls-6,.cls-8{fill-rule:evenodd;}.cls-3{stroke:#221f20;}.cls-12,.cls-13,.cls-14,.cls-15,.cls-16,.cls-3,.cls-5,.cls-7,.cls-9{stroke-miterlimit:10;}.cls-3,.cls-9{stroke-width:0.3px;}.cls-4{clip-path:url(#clip-path);}.cls-14,.cls-15,.cls-5,.cls-7{stroke:#997424;}.cls-5,.cls-7{stroke-width:2.56px;}.cls-6{fill:#6c1535;}.cls-14,.cls-7{stroke-linecap:round;}.cls-8{fill:#fffefe;}.cls-13,.cls-16,.cls-9{stroke:#081c3c;}.cls-10{fill:#ad7e2d;}.cls-11{fill:#997424;}.cls-12{stroke:#6c1535;stroke-width:0.63px;}.cls-13{stroke-width:0.32px;}.cls-14{stroke-width:3.42px;}.cls-15{stroke-width:1.57px;}.cls-16{stroke-width:0.21px;}</style><clipPath id="clip-path" transform="translate(-180.5 -47.57)"><polygon class="cls-1" points="175.54 201.73 175.54 201.73 285.11 201.73 285.11 43.13 175.54 43.13 175.54 201.73"></polygon></clipPath></defs><polygon class="cls-2" points="29.49 126.76 29.49 126.76 19.01 135.17 23.83 139.16 29.07 144.41 32.73 148.06 37.9 144.41 49.21 138.41 51.21 135.17 44.38 126.76 29.49 126.76"></polygon><polygon class="cls-3" points="29.49 126.76 29.49 126.76 19.01 135.17 23.83 139.16 29.07 144.41 32.73 148.06 37.9 144.41 49.21 138.41 51.21 135.17 44.38 126.76 29.49 126.76"></polygon><g class="cls-4"><path class="cls-2" d="M229.67,89.37a47.89,47.89,0,1,1-47.88,47.89,47.89,47.89,0,0,1,47.88-47.89" transform="translate(-180.5 -47.57)"></path><path class="cls-5" d="M229.67,89.37a47.89,47.89,0,1,1-47.88,47.89A47.89,47.89,0,0,1,229.67,89.37Z" transform="translate(-180.5 -47.57)"></path><path class="cls-6" d="M229.22,108.53a28.73,28.73,0,1,1-28.73,28.73,28.73,28.73,0,0,1,28.73-28.73" transform="translate(-180.5 -47.57)"></path><path class="cls-5" d="M229.22,108.53a28.73,28.73,0,1,1-28.73,28.73A28.73,28.73,0,0,1,229.22,108.53Z" transform="translate(-180.5 -47.57)"></path><path class="cls-7" d="M209.39,174.73h0l-9.5,7.85c.65.49,1,.77,1.65,1.28a53.62,53.62,0,0,1,8.83,8.6l2.64,3.16c.69-.57,1.09-.88,1.8-1.43a43.7,43.7,0,0,1,6.94-4.52A39.22,39.22,0,0,1,234,185.29l8.15-1.66" transform="translate(-180.5 -47.57)"></path><path class="cls-8" d="M218.27,153.39h0l13.66-21,9.66-15.91h.6l.75.22.31.46.07.52-23.68,35.9c-.32.36-.64.85-.9,1.11a3.37,3.37,0,0,1-.7.55,4.33,4.33,0,0,1-4.35.15c-1.3-.73-2.7-1.55-2.36-3a2.17,2.17,0,0,1,.62-1.15,2.35,2.35,0,0,1,3-.37Z" transform="translate(-180.5 -47.57)"></path><path class="cls-9" d="M218.27,153.39h0l13.66-21,9.66-15.91h.6l.75.22.31.46.07.52-23.68,35.9c-.32.36-.64.85-.9,1.11a3.37,3.37,0,0,1-.7.55,4.33,4.33,0,0,1-4.35.15c-1.3-.73-2.7-1.55-2.36-3a2.17,2.17,0,0,1,.62-1.15,2.35,2.35,0,0,1,3-.37Z" transform="translate(-180.5 -47.57)"></path><path class="cls-8" d="M241.42,153.83h0l-13.67-21L218.1,117h-.61l-.75.22-.3.46-.08.52L240,154.06c.32.36.64.85.91,1.11a3.69,3.69,0,0,0,.69.55,4.35,4.35,0,0,0,4.36.15c1.29-.73,2.69-1.55,2.35-3a2.11,2.11,0,0,0-.62-1.15,2.35,2.35,0,0,0-3-.38Z" transform="translate(-180.5 -47.57)"></path><path class="cls-9" d="M241.42,153.83h0l-13.67-21L218.1,117h-.61l-.75.22-.3.46-.08.52L240,154.06c.32.36.64.85.91,1.11a3.69,3.69,0,0,0,.69.55,4.35,4.35,0,0,0,4.36.15c1.29-.73,2.69-1.55,2.35-3a2.11,2.11,0,0,0-.62-1.15,2.35,2.35,0,0,0-3-.38Z" transform="translate(-180.5 -47.57)"></path><path class="cls-8" d="M225.52,153.47a2.42,2.42,0,1,1-2.41,2.41,2.41,2.41,0,0,1,2.41-2.41" transform="translate(-180.5 -47.57)"></path><path class="cls-9" d="M225.52,153.47a2.42,2.42,0,1,1-2.41,2.41A2.41,2.41,0,0,1,225.52,153.47Z" transform="translate(-180.5 -47.57)"></path><path class="cls-8" d="M232.54,153.41a2.42,2.42,0,1,1-2.42,2.42,2.41,2.41,0,0,1,2.42-2.42" transform="translate(-180.5 -47.57)"></path><path class="cls-9" d="M232.54,153.41a2.42,2.42,0,1,1-2.42,2.42A2.41,2.41,0,0,1,232.54,153.41Z" transform="translate(-180.5 -47.57)"></path><path class="cls-8" d="M199.87,168.4h0l-.13-.12c-1-1-.93-1.77.28-3s2.17-1.47,3-.64l.25.23Zm3.59-11c.34.33.32.59-.09,1.65l-1.52,3.88a2.71,2.71,0,0,0-3.23.82c-1.14,1.18-1.57,2.77.15,4.44l2.75,2.65.21-.21c-.54-.48-.43-.9.12-1.46l5.88-6.09c.53-.56.94-.67,1.44-.16l.21-.22L206.6,160l-.21.21c.51.5.56.82-.08,1.49l-2.68,2.77-.25-.25,2.07-5.33-1.79-1.73Z" transform="translate(-180.5 -47.57)"></path><path class="cls-8" d="M195.82,155.42c2.7-1.69,4.74-2.61,5.63-1.2s-1.08,3-3.52,4.52c-2.82,1.77-4.66,2.39-5.47,1.1s.67-2.74,3.36-4.42m-1-1.94c-3.75,2.34-3.83,5.1-2.83,6.7.82,1.31,3.2,2.89,7.25.36,3.89-2.44,3.68-5.19,2.76-6.66s-3.3-2.83-7.18-.4" transform="translate(-180.5 -47.57)"></path><path class="cls-8" d="M187,148.83h0l.68,1.79.28-.11c-.16-.47-.09-.74.22-.86a3.55,3.55,0,0,1,1.1-.16l4.29-.25-3.82,3.14a2.18,2.18,0,0,1-.46.33c-.28.1-.56-.06-.71-.59l-.28.11,1.29,3.35.28-.1c-.11-.56-.07-.6,1.2-1.65l4.17-3.47,2.57-1c.87-.33,1.2-.17,1.49.76l.28-.11L198,145.9l-.28.1c.46,1,.17,1.24-.93,1.66l-2.67,1-4.86.27c-1.63.09-1.74.08-2-.23Z" transform="translate(-180.5 -47.57)"></path><path class="cls-8" d="M194,142.39h0l.33,2.07-4.05-.42v0Zm2.46-3.71c0,.44-.24.66-1.53,1.21l-9.08,3.94,0,.25,9.75,1c1.49.16,1.78.27,1.95.75l.3-.05-.32-2-.29,0c.1.51-.09.74-.43.79a2.8,2.8,0,0,1-.73,0l-1.16-.1-.38-2.4,1.07-.46a5.63,5.63,0,0,1,.79-.25c.29-.05.47.1.55.63l.3,0-.54-3.38Z" transform="translate(-180.5 -47.57)"></path><path class="cls-8" d="M193.37,131.05c2.7.84,3.16,1.64,3,3.38,0,.54-.25.72-1,.67l-8.29-.58c-.85-.06-1.13-.31-1-1.26l-.3,0-.3,4.24.3,0c0-.9.43-1.07,1.17-1l8.42.59c.86.06,1.16.27,1.1,1.18l.3,0,.48-6.85-3.85-.62Z" transform="translate(-180.5 -47.57)"></path><path class="cls-8" d="M189.76,120h0l.21-.45c.51-1.09,1.36-1.24,2.91-.52s2.11,1.44,1.61,2.51l-.25.55Zm5,2.35h0l.39-.84c1.14-2.46-.19-3.92-1.39-4.48a3.42,3.42,0,0,0-2.25-.2c-.72.2-1.29.65-2.17,2.52l-1.39,3,.27.13c.26-.68.76-.66,1.4-.36l7.66,3.57c.69.32,1,.65.65,1.31l.27.13,1.66-3.57-.27-.12c-.3.77-.72.83-1.44.49Z" transform="translate(-180.5 -47.57)"></path><path class="cls-8" d="M200,112.58c2.55,1.92,4.14,3.49,3.14,4.83s-3.19.06-5.48-1.67c-2.66-2-3.91-3.49-3-4.71s2.8-.36,5.33,1.55m1.44-1.67c-3.53-2.66-6.13-1.75-7.27-.24-.93,1.24-1.55,4,2.26,6.9s6.17,1.57,7.21.19,1.46-4.09-2.2-6.85" transform="translate(-180.5 -47.57)"></path><path class="cls-8" d="M201.45,104.3h0l.13-.11c1.09-.88,1.87-.7,3,.65s1.19,2.32.27,3.07l-.27.22Zm10.47,4.9c-.37.3-.62.25-1.63-.28l-3.66-2a2.72,2.72,0,0,0-.42-3.31c-1-1.27-2.56-1.89-4.43-.38l-3,2.4.19.23c.54-.47.94-.31,1.43.3l5.34,6.58c.48.6.54,1,0,1.45l.18.23,3-2.43-.19-.23c-.55.45-.88.45-1.46-.27l-2.43-3,.28-.22,5,2.71,1.93-1.57Z" transform="translate(-180.5 -47.57)"></path><path class="cls-8" d="M208.34,102.25c-.73-1.88-.32-2.48,1-3.13l4.07,8.34c.35.72.3,1.17-.48,1.47l.13.27,3.7-1.8-.13-.27c-.78.43-1.1.19-1.47-.57l-4.06-8.31c1.44-.7,2.16-.4,3.1,1.13l.23-.11-1.31-2.68-6.34,3.09,1.31,2.68Z" transform="translate(-180.5 -47.57)"></path><path class="cls-8" d="M217.87,95.78h0l.17,0c1.35-.34,2,.15,2.41,1.84s.09,2.61-1,2.89l-.34.09Zm7.41,8.87c-.45.11-.67,0-1.35-1l-2.48-3.34a2.74,2.74,0,0,0,1-3.18c-.4-1.59-1.52-2.8-3.85-2.22l-3.71.92.07.29c.69-.2,1,.12,1.18.87l2.05,8.23c.18.74.06,1.14-.63,1.3l.07.29,3.75-.94-.07-.29c-.69.18-1,0-1.22-.86l-.93-3.73.35-.09,3.42,4.59,2.41-.6Z" transform="translate(-180.5 -47.57)"></path><path class="cls-8" d="M224.73,93.76h0v.29c.65,0,.82.41.83,1.12l.12,7a2.85,2.85,0,0,0,3.22,3c2.57,0,3.11-1.75,3.08-3.33l-.11-6.85c0-.76.16-1.13.82-1.15v-.3l-2.15,0V94c.63,0,.79.32.82,1.68l.1,6a3.76,3.76,0,0,1-.43,2.16,1.9,1.9,0,0,1-1.56.67,1.66,1.66,0,0,1-1.32-.51,2.82,2.82,0,0,1-.49-1.83l-.12-7c0-.74.24-1.06.81-1.09l0-.3Z" transform="translate(-180.5 -47.57)"></path><path class="cls-8" d="M239.84,98.53h0l.68-3.62-.25,0c-.18.48-.34.65-.61.6s-.86-.91-1.86-1.13c-1.42-.3-2.68.75-3.07,2.57a3.41,3.41,0,0,0,.36,2.57c.53,1,1.95,2.11,2.4,2.92a1.76,1.76,0,0,1,.18,1.44c-.22,1.08-1,1.73-1.81,1.55-1.26-.27-2-1.95-1.8-4l-.25-.06-.87,4.11.24,0c.17-.42.39-.6.64-.54s1,.9,2,1.11c1.53.33,3-.84,3.38-2.76a3.87,3.87,0,0,0-.33-2.7c-.63-1.15-2-2.06-2.55-3a1.73,1.73,0,0,1-.19-1.24A1.53,1.53,0,0,1,237.91,95c1.11.24,1.78,1.62,1.68,3.5Z" transform="translate(-180.5 -47.57)"></path><path class="cls-8" d="M244.36,97.84h0l-3.75,7.69c-.35.7-.7.88-1.31.56l-.13.27,3.44,1.68.13-.27c-.6-.29-.73-.63-.34-1.44l1.77-3.62,2.58,1.26L245,107.54c-.35.74-.7,1-1.35.67l-.13.27,3.42,1.67.13-.27c-.68-.33-.65-.76-.3-1.47l3.7-7.59c.36-.74.75-.85,1.29-.57l.14-.27-3.43-1.67-.13.27c.71.33.67.75.33,1.44l-1.61,3.31-2.58-1.26,1.65-3.38c.33-.68.69-.87,1.3-.55l.13-.27-3.43-1.68-.13.27c.65.29.66.75.36,1.38" transform="translate(-180.5 -47.57)"></path><path class="cls-8" d="M262.06,108.56c-.38.3-.72.36-.88.19s-.12-1.22-1-2.1c-1.48-1.53-4.6-1.26-7.37,1.42-3.15,3-2.36,5.53-1.16,6.77a5.39,5.39,0,0,0,2.72,1.46l1.39-1.34c1.11-1.07,1.42-1.18,1.91-.72l.22-.2-2.63-2.72-.21.21c.56.5.45.94-.1,1.47L253,114.88a1.15,1.15,0,0,1-.86-.41c-.89-.92-.43-2.29,2.1-4.73s4.5-3.69,5.59-2.57c.83.87.61,2.43-.57,4.07l.17.18,2.77-2.67Z" transform="translate(-180.5 -47.57)"></path><path class="cls-8" d="M262.58,119.52c-2.73,1.64-4.79,2.53-5.65,1.1s1.14-3,3.59-4.46c2.86-1.71,4.71-2.31,5.5-1s-.72,2.73-3.44,4.36m1,2c3.8-2.28,3.93-5,3-6.65-.81-1.33-3.15-3-7.25-.49-3.93,2.37-3.76,5.13-2.88,6.61s3.25,2.89,7.17.53" transform="translate(-180.5 -47.57)"></path><path class="cls-8" d="M264.39,130c-2.82.19-3.53-.4-4-2.06-.16-.52,0-.77.73-1l7.95-2.43c.81-.25,1.16-.12,1.39.81l.29-.09-1.25-4.06-.28.09c.32.84,0,1.15-.73,1.37l-8.07,2.46c-.83.26-1.18.17-1.45-.7l-.28.08,2,6.57,3.82-.8Z" transform="translate(-180.5 -47.57)"></path><path class="cls-8" d="M269.35,137.39h0l3.1-.21-.45-6.41-.3,0c.05.64-.3.9-1,1l-8.44.59c-.86,0-1.17-.12-1.23-.79l-.3,0,.26,3.74.3,0c-.06-.74.3-.93,1.13-1l3.9-.28c.07,1.23-.66,2-2.38,2.07v.27l5.5-.38,0-.27c-1.64.11-2.36-.41-2.5-1.73l4.67-.32.05.81c.12,1.62-.41,2.36-2.3,2.68Z" transform="translate(-180.5 -47.57)"></path><path class="cls-8" d="M267.21,148.83h0l3.71.79.05-.25c-.53-.2-.72-.33-.68-.54.11-.52,1-.83,1.25-2.1.47-2.24-1.76-4.51-5.18-5.24s-5.89.43-6.38,2.73a3.48,3.48,0,0,0,1.21,3.33l.82.18c-1.07-1.17-1.62-1.92-1.4-3a1.57,1.57,0,0,1,.86-1.08c.88-.49,2.29-.51,4.66,0,2.17.46,3.6,1.08,4.25,1.94a1.66,1.66,0,0,1,.37,1.37c-.24,1.11-1.7,1.77-3.49,1.58Z" transform="translate(-180.5 -47.57)"></path><path class="cls-8" d="M260.39,154.83c-2.26-1.71-2.41-2.62-1.71-4.21.23-.5.49-.6,1.22-.27l7.59,3.38c.77.34.95.67.52,1.52l.27.12,1.73-3.88-.27-.12c-.31.85-.77.86-1.45.56l-7.71-3.44c-.79-.35-1-.64-.63-1.48l-.28-.12-2.79,6.27,3.4,1.9Z" transform="translate(-180.5 -47.57)"></path><path class="cls-8" d="M266.19,159.66h0l-.25-.17c-.42.5-.81.41-1.39,0l-5.68-4.13a2.86,2.86,0,0,0-4.38.74c-1.51,2.08-.47,3.53.8,4.46l5.54,4c.62.44.81.81.44,1.35l.24.18,1.26-1.75-.24-.17c-.38.5-.73.44-1.83-.36l-4.86-3.53a3.76,3.76,0,0,1-1.46-1.65,1.91,1.91,0,0,1,.4-1.65,1.66,1.66,0,0,1,1.2-.75,2.92,2.92,0,0,1,1.76.71l5.7,4.15c.6.44.71.83.38,1.3l.25.16Z" transform="translate(-180.5 -47.57)"></path><path class="cls-8" d="M253.79,165.33h0l-.19.15c-1,.83-2,.51-3.12-.76s-1.12-2.16-.38-2.77c.39-.33.64-.26,1.21.43Zm.39.47h0l2.9,3.45-.12.1c-.95.8-1.74.62-2.78-.63s-1-2.05-.22-2.74Zm5.5,2.07h0l-.19-.23c-.5.42-.86.4-1.44-.3L252.69,161c-.58-.7-.63-1.07-.09-1.53l-3.13,2.24a3,3,0,0,0-.62,4.52c1.09,1.3,2.53,1.39,4.2.23l0,0c-1.23,1.33-1.35,2.54-.39,3.68.73.88,2.23,1.75,4.58-.22Z" transform="translate(-180.5 -47.57)"></path><path class="cls-10" d="M231.19,162.77c2.11,0,2.15,2.09,2.66,3.67,2.11,6.54,5.79,19.78,5.79,20.16a2.17,2.17,0,0,1-2.11,2.11c-2.17,0-2.49-2.79-2.83-4-1.9-6.45-5.62-19.41-5.62-19.78a2.19,2.19,0,0,1,2.11-2.19" transform="translate(-180.5 -47.57)"></path><path class="cls-9" d="M231.19,162.77c2.11,0,2.15,2.09,2.66,3.67,2.11,6.54,5.79,19.78,5.79,20.16a2.17,2.17,0,0,1-2.11,2.11c-2.17,0-2.49-2.79-2.83-4-1.9-6.45-5.62-19.41-5.62-19.78A2.19,2.19,0,0,1,231.19,162.77Z" transform="translate(-180.5 -47.57)"></path><path class="cls-10" d="M242.13,159.64c2,0,2.27,2.1,3,3.51,1.68,3.51,7.76,17.55,7.76,18.66a2.15,2.15,0,0,1-2.11,2.11c-1.68,0-2-1.53-2.77-3.21-2.68-6.32-7.94-18.58-7.94-19a2.2,2.2,0,0,1,2.11-2.11" transform="translate(-180.5 -47.57)"></path><path class="cls-9" d="M242.13,159.64c2,0,2.27,2.1,3,3.51,1.68,3.51,7.76,17.55,7.76,18.66a2.15,2.15,0,0,1-2.11,2.11c-1.68,0-2-1.53-2.77-3.21-2.68-6.32-7.94-18.58-7.94-19A2.2,2.2,0,0,1,242.13,159.64Z" transform="translate(-180.5 -47.57)"></path><path class="cls-10" d="M220.5,162.31a12.45,12.45,0,1,1-12.45,12.45,12.47,12.47,0,0,1,12.45-12.45m0,3.47a9,9,0,1,1-9,9,8.89,8.89,0,0,1,9-9" transform="translate(-180.5 -47.57)"></path><path class="cls-9" d="M220.5,162.31a12.45,12.45,0,1,1-12.45,12.45A12.47,12.47,0,0,1,220.5,162.31Zm0,3.47a9,9,0,1,1-9,9A8.89,8.89,0,0,1,220.5,165.78Z" transform="translate(-180.5 -47.57)"></path><path class="cls-10" d="M208.25,168.22a63.6,63.6,0,0,1,6.14,2.61,1.08,1.08,0,0,1,.5,1,1.22,1.22,0,0,1-1.28,1.21,43.43,43.43,0,0,1-6.07-2.63,1.15,1.15,0,0,1-.49-1,1.17,1.17,0,0,1,1.2-1.21" transform="translate(-180.5 -47.57)"></path><path class="cls-9" d="M208.25,168.22a63.6,63.6,0,0,1,6.14,2.61,1.08,1.08,0,0,1,.5,1,1.22,1.22,0,0,1-1.28,1.21,43.43,43.43,0,0,1-6.07-2.63,1.15,1.15,0,0,1-.49-1A1.17,1.17,0,0,1,208.25,168.22Z" transform="translate(-180.5 -47.57)"></path><polygon class="cls-11" points="33.71 34.93 33.71 34.93 33.31 35.54 33.31 37.5 45.93 34.28 64.18 37.15 66.84 37.9 66.84 36.04 59.25 33.07 51.05 31.77 42.26 32.72 33.71 34.93"></polygon><path class="cls-11" d="M222.41,59.74A1.39,1.39,0,1,1,221,61.13a1.39,1.39,0,0,1,1.38-1.39" transform="translate(-180.5 -47.57)"></path><path class="cls-9" d="M222.41,59.74A1.39,1.39,0,1,1,221,61.13,1.39,1.39,0,0,1,222.41,59.74Z" transform="translate(-180.5 -47.57)"></path><path class="cls-11" d="M217.14,62.65A1.39,1.39,0,1,1,215.76,64a1.39,1.39,0,0,1,1.38-1.39" transform="translate(-180.5 -47.57)"></path><path class="cls-9" d="M217.14,62.65A1.39,1.39,0,1,1,215.76,64,1.39,1.39,0,0,1,217.14,62.65Z" transform="translate(-180.5 -47.57)"></path><path class="cls-11" d="M219.64,61a1.39,1.39,0,1,1-1.38,1.38A1.38,1.38,0,0,1,219.64,61" transform="translate(-180.5 -47.57)"></path><path class="cls-9" d="M219.64,61a1.39,1.39,0,1,1-1.38,1.38A1.38,1.38,0,0,1,219.64,61Z" transform="translate(-180.5 -47.57)"></path><path class="cls-11" d="M213,67.22a1.39,1.39,0,1,1-1.38,1.38A1.38,1.38,0,0,1,213,67.22" transform="translate(-180.5 -47.57)"></path><path class="cls-9" d="M213,67.22a1.39,1.39,0,1,1-1.38,1.38A1.38,1.38,0,0,1,213,67.22Z" transform="translate(-180.5 -47.57)"></path><path class="cls-11" d="M215,64.76a1.39,1.39,0,1,1-1.39,1.39A1.39,1.39,0,0,1,215,64.76" transform="translate(-180.5 -47.57)"></path><path class="cls-9" d="M215,64.76a1.39,1.39,0,1,1-1.39,1.39A1.39,1.39,0,0,1,215,64.76Z" transform="translate(-180.5 -47.57)"></path><path class="cls-11" d="M211.38,69.87A1.39,1.39,0,1,1,210,71.26a1.39,1.39,0,0,1,1.39-1.39" transform="translate(-180.5 -47.57)"></path><path class="cls-9" d="M211.38,69.87A1.39,1.39,0,1,1,210,71.26,1.39,1.39,0,0,1,211.38,69.87Z" transform="translate(-180.5 -47.57)"></path><path class="cls-11" d="M225.46,58.79a1.39,1.39,0,1,1-1.39,1.38,1.38,1.38,0,0,1,1.39-1.38" transform="translate(-180.5 -47.57)"></path><path class="cls-9" d="M225.46,58.79a1.39,1.39,0,1,1-1.39,1.38A1.38,1.38,0,0,1,225.46,58.79Z" transform="translate(-180.5 -47.57)"></path><path class="cls-11" d="M235.84,58.55a1.39,1.39,0,1,1-1.39,1.39,1.38,1.38,0,0,1,1.39-1.39" transform="translate(-180.5 -47.57)"></path><path class="cls-9" d="M235.84,58.55a1.39,1.39,0,1,1-1.39,1.39A1.38,1.38,0,0,1,235.84,58.55Z" transform="translate(-180.5 -47.57)"></path><path class="cls-11" d="M238.84,59.47a1.39,1.39,0,1,1-1.38,1.39,1.39,1.39,0,0,1,1.38-1.39" transform="translate(-180.5 -47.57)"></path><path class="cls-9" d="M238.84,59.47a1.39,1.39,0,1,1-1.38,1.39A1.39,1.39,0,0,1,238.84,59.47Z" transform="translate(-180.5 -47.57)"></path><polygon class="cls-11" points="49.34 10.12 49.34 10.12 49.34 6.87 46 8.14 45.92 3.62 48.86 4.88 46.88 0.2 49.89 0.2 52.94 0.15 50.96 4.83 53.9 3.56 53.82 8.09 50.48 6.82 50.48 10.07 49.34 10.12"></polygon><polygon class="cls-9" points="49.34 10.12 49.34 10.12 49.34 6.87 46 8.14 45.92 3.62 48.86 4.88 46.88 0.2 49.89 0.2 52.94 0.15 50.96 4.83 53.9 3.56 53.82 8.09 50.48 6.82 50.48 10.07 49.34 10.12"></polygon><polygon class="cls-6" points="34.46 21.23 34.46 21.23 41.61 21.82 44.81 20.28 54.89 20.04 57.75 21.23 65.76 20.2 66.44 22.01 68.7 26.99 66.44 34.23 64.03 34.53 59.35 32.87 51.66 31.67 42.46 32.87 37.48 34.08 33.71 34.98 31.15 25.79 32.96 24.28 34.46 21.23"></polygon><polygon class="cls-12" points="34.46 21.23 34.46 21.23 41.61 21.82 44.81 20.28 54.89 20.04 57.75 21.23 65.76 20.2 66.44 22.01 68.7 26.99 66.44 34.23 64.03 34.53 59.35 32.87 51.66 31.67 42.46 32.87 37.48 34.08 33.71 34.98 31.15 25.79 32.96 24.28 34.46 21.23"></polygon><path class="cls-6" d="M215,84c4.11-2,9.95-3.09,15.59-3.29s12.12,1.91,16.69,4.31l.1.6-.17.75L247,88.19l-5.15-.83L235,85.9h-6.9l-9.6.67-1.87,1.19-2.14,0-.32-2.42-.2-.83Z" transform="translate(-180.5 -47.57)"></path><path class="cls-13" d="M215,84c4.11-2,9.95-3.09,15.59-3.29s12.12,1.91,16.69,4.31l.1.6-.17.75L247,88.19l-5.15-.83L235,85.9h-6.9l-9.6.67-1.87,1.19-2.14,0-.32-2.42-.2-.83Z" transform="translate(-180.5 -47.57)"></path><path class="cls-11" d="M222.93,82.17a1.39,1.39,0,1,1-1.39,1.39,1.39,1.39,0,0,1,1.39-1.39" transform="translate(-180.5 -47.57)"></path><polygon class="cls-2" points="50.26 35.3 50.26 35.3 50.26 34.1 55.54 35.3 50.26 35.3"></polygon><path class="cls-11" d="M238.36,82.43A1.39,1.39,0,1,1,237,83.82a1.39,1.39,0,0,1,1.39-1.39" transform="translate(-180.5 -47.57)"></path><path class="cls-14" d="M214.07,89a43,43,0,0,1,16-2.58,46.94,46.94,0,0,1,16.7,3.18" transform="translate(-180.5 -47.57)"></path><path class="cls-11" d="M230.52,68.07c1.16,0,2.1.37,2.1.83s-.94.84-2.1.84-2.11-.38-2.11-.84,1-.83,2.11-.83" transform="translate(-180.5 -47.57)"></path><path class="cls-13" d="M230.52,68.07c1.16,0,2.1.37,2.1.83s-.94.84-2.1.84-2.11-.38-2.11-.84S229.36,68.07,230.52,68.07Z" transform="translate(-180.5 -47.57)"></path><path class="cls-11" d="M244.39,62.53A1.39,1.39,0,1,1,243,63.92a1.38,1.38,0,0,1,1.39-1.39" transform="translate(-180.5 -47.57)"></path><path class="cls-9" d="M244.39,62.53A1.39,1.39,0,1,1,243,63.92,1.38,1.38,0,0,1,244.39,62.53Z" transform="translate(-180.5 -47.57)"></path><path class="cls-11" d="M241.62,60.86a1.39,1.39,0,1,1-1.38,1.39,1.39,1.39,0,0,1,1.38-1.39" transform="translate(-180.5 -47.57)"></path><path class="cls-9" d="M241.62,60.86a1.39,1.39,0,1,1-1.38,1.39A1.39,1.39,0,0,1,241.62,60.86Z" transform="translate(-180.5 -47.57)"></path><path class="cls-11" d="M246.8,64.51a1.39,1.39,0,1,1-1.39,1.39,1.38,1.38,0,0,1,1.39-1.39" transform="translate(-180.5 -47.57)"></path><path class="cls-9" d="M246.8,64.51a1.39,1.39,0,1,1-1.39,1.39A1.38,1.38,0,0,1,246.8,64.51Z" transform="translate(-180.5 -47.57)"></path><path class="cls-11" d="M248.74,67a1.39,1.39,0,1,1-1.39,1.39A1.39,1.39,0,0,1,248.74,67" transform="translate(-180.5 -47.57)"></path><path class="cls-9" d="M248.74,67a1.39,1.39,0,1,1-1.39,1.39A1.39,1.39,0,0,1,248.74,67Z" transform="translate(-180.5 -47.57)"></path><path class="cls-11" d="M250,69.9a1.39,1.39,0,1,1-1.38,1.38A1.38,1.38,0,0,1,250,69.9" transform="translate(-180.5 -47.57)"></path><path class="cls-9" d="M250,69.9a1.39,1.39,0,1,1-1.38,1.38A1.38,1.38,0,0,1,250,69.9Z" transform="translate(-180.5 -47.57)"></path><path class="cls-15" d="M211.8,74.11c2-7.09,10.25-12.85,18.91-12.85,9.08,0,17.18,5.7,18.8,13.3" transform="translate(-180.5 -47.57)"></path><path class="cls-11" d="M247.25,84.26h0l4-12.25-.75-.26-1.12-.28-.6-.15-.65-.11.27,1.11.34,1.72-.1.92L248.22,76l-1.3-1.63-1.37,3.78.57.11.41.16.47.22.33.23.18.36a5.5,5.5,0,0,1-.18.88c-.42.94-1.35,1.06-2.37,1.17a3.48,3.48,0,0,1-3.59-1.79A2.2,2.2,0,0,1,241,77.9a1.85,1.85,0,0,1,3.51-.54,2.4,2.4,0,0,0,.18-1.54,2,2,0,0,0-.73-1.44,1.77,1.77,0,0,0-2-.2l-.41.23a3.29,3.29,0,0,0,.16-.77,3.51,3.51,0,0,0-.16-1.79,2.12,2.12,0,0,0-.72-1.23.52.52,0,0,0-.26-.1.53.53,0,0,0-.28,0,2.15,2.15,0,0,0-.93,1.1,3.5,3.5,0,0,0-.49,1.73,4.19,4.19,0,0,0,0,.79l-.36-.3a1.79,1.79,0,0,0-2-.12,2,2,0,0,0-1,1.29,2.39,2.39,0,0,0-.1,1.54,1.8,1.8,0,0,1,2.33-.62,1.67,1.67,0,0,1,1,1.74c-.06.48-.18.58-.6,1.1l0,0a3.29,3.29,0,0,1-2.85.63,4.34,4.34,0,0,1-3.11-1.94,4.72,4.72,0,0,1-1-2.1l.58-.38,2,1,.25-3.8-2.29.55,1.39-3.26-2.47-.08-2.45.08,1.39,3.26-2.29-.55.25,3.8,2-1,.57.38a4.62,4.62,0,0,1-1,2.1,4.32,4.32,0,0,1-3.1,1.94,3.31,3.31,0,0,1-2.86-.63l0,0c-.42-.52-.54-.62-.59-1.1a1.66,1.66,0,0,1,1-1.74,1.82,1.82,0,0,1,2.34.62,2.4,2.4,0,0,0-.11-1.54,2,2,0,0,0-1-1.29,1.8,1.8,0,0,0-2,.12l-.36.3a4.32,4.32,0,0,0-.47-2.52,2.15,2.15,0,0,0-.93-1.1.51.51,0,0,0-.27,0,.56.56,0,0,0-.27.1,2.23,2.23,0,0,0-.72,1.23,3.51,3.51,0,0,0-.16,1.79,3.9,3.9,0,0,0,.16.77l-.4-.23a1.77,1.77,0,0,0-2,.2,2,2,0,0,0-.74,1.44,2.46,2.46,0,0,0,.18,1.54,1.82,1.82,0,0,1,2.19-1,1.83,1.83,0,0,1,1.33,1.54,2.25,2.25,0,0,1-.41,1.63,3.5,3.5,0,0,1-3.59,1.79c-1-.11-2-.23-2.37-1.17a3.92,3.92,0,0,1-.18-.88l.18-.36.32-.23.48-.22.4-.16.58-.11-1.37-3.78L213.1,76,212.69,75l-.1-.92.35-1.72.26-1.11-.65.11-.59.15-1.12.28-.76.26,3.84,11.6c4.11-2,11-3.38,16.68-3.58s12.08,1.83,16.65,4.23" transform="translate(-180.5 -47.57)"></path><path class="cls-13" d="M247.25,84.26h0l4-12.25-.75-.26-1.12-.28-.6-.15-.65-.11.27,1.11.34,1.72-.1.92L248.22,76l-1.3-1.63-1.37,3.78.57.11.41.16.47.22.33.23.18.36a5.5,5.5,0,0,1-.18.88c-.42.94-1.35,1.06-2.37,1.17a3.48,3.48,0,0,1-3.59-1.79A2.2,2.2,0,0,1,241,77.9a1.85,1.85,0,0,1,3.51-.54,2.4,2.4,0,0,0,.18-1.54,2,2,0,0,0-.73-1.44,1.77,1.77,0,0,0-2-.2l-.41.23a3.29,3.29,0,0,0,.16-.77,3.51,3.51,0,0,0-.16-1.79,2.12,2.12,0,0,0-.72-1.23.52.52,0,0,0-.26-.1.53.53,0,0,0-.28,0,2.15,2.15,0,0,0-.93,1.1,3.5,3.5,0,0,0-.49,1.73,4.19,4.19,0,0,0,0,.79l-.36-.3a1.79,1.79,0,0,0-2-.12,2,2,0,0,0-1,1.29,2.39,2.39,0,0,0-.1,1.54,1.8,1.8,0,0,1,2.33-.62,1.67,1.67,0,0,1,1,1.74c-.06.48-.18.58-.6,1.1l0,0a3.29,3.29,0,0,1-2.85.63,4.34,4.34,0,0,1-3.11-1.94,4.72,4.72,0,0,1-1-2.1l.58-.38,2,1,.25-3.8-2.29.55,1.39-3.26-2.47-.08-2.45.08,1.39,3.26-2.29-.55.25,3.8,2-1,.57.38a4.62,4.62,0,0,1-1,2.1,4.32,4.32,0,0,1-3.1,1.94,3.31,3.31,0,0,1-2.86-.63l0,0c-.42-.52-.54-.62-.59-1.1a1.66,1.66,0,0,1,1-1.74,1.82,1.82,0,0,1,2.34.62,2.4,2.4,0,0,0-.11-1.54,2,2,0,0,0-1-1.29,1.8,1.8,0,0,0-2,.12l-.36.3a4.32,4.32,0,0,0-.47-2.52,2.15,2.15,0,0,0-.93-1.1.51.51,0,0,0-.27,0,.56.56,0,0,0-.27.1,2.23,2.23,0,0,0-.72,1.23,3.51,3.51,0,0,0-.16,1.79,3.9,3.9,0,0,0,.16.77l-.4-.23a1.77,1.77,0,0,0-2,.2,2,2,0,0,0-.74,1.44,2.46,2.46,0,0,0,.18,1.54,1.82,1.82,0,0,1,2.19-1,1.83,1.83,0,0,1,1.33,1.54,2.25,2.25,0,0,1-.41,1.63,3.5,3.5,0,0,1-3.59,1.79c-1-.11-2-.23-2.37-1.17a3.92,3.92,0,0,1-.18-.88l.18-.36.32-.23.48-.22.4-.16.58-.11-1.37-3.78L213.1,76,212.69,75l-.1-.92.35-1.72.26-1.11-.65.11-.59.15-1.12.28-.76.26,3.84,11.6c4.11-2,11-3.38,16.68-3.58S242.68,81.86,247.25,84.26Z" transform="translate(-180.5 -47.57)"></path><path class="cls-11" d="M230.56,55.63A3.41,3.41,0,1,1,227.14,59a3.41,3.41,0,0,1,3.42-3.41" transform="translate(-180.5 -47.57)"></path><path class="cls-9" d="M230.56,55.63A3.41,3.41,0,1,1,227.14,59,3.41,3.41,0,0,1,230.56,55.63Z" transform="translate(-180.5 -47.57)"></path><path class="cls-11" d="M228.39,66.73c0-.69.77-1.26,1.71-1.26h.81c.94,0,1.71.57,1.71,1.26S231.85,68,230.91,68h-.81c-.94,0-1.71-.56-1.71-1.25" transform="translate(-180.5 -47.57)"></path><path class="cls-16" d="M228.39,66.73c0-.69.77-1.26,1.71-1.26h.81c.94,0,1.71.57,1.71,1.26S231.85,68,230.91,68h-.81C229.16,68,228.39,67.42,228.39,66.73Z" transform="translate(-180.5 -47.57)"></path><path class="cls-11" d="M228.05,64.59c0-.68.77-1.23,1.71-1.23h1.3c.94,0,1.71.55,1.71,1.23s-.77,1.22-1.71,1.22h-1.3c-.94,0-1.71-.54-1.71-1.22" transform="translate(-180.5 -47.57)"></path><path class="cls-16" d="M228.05,64.59c0-.68.77-1.23,1.71-1.23h1.3c.94,0,1.71.55,1.71,1.23s-.77,1.22-1.71,1.22h-1.3C228.82,65.81,228.05,65.27,228.05,64.59Z" transform="translate(-180.5 -47.57)"></path><path class="cls-11" d="M227.49,62.38c0-.71.76-1.28,1.71-1.28h2.72c1,0,1.71.57,1.71,1.28s-.76,1.28-1.71,1.28H229.2c-.95,0-1.71-.57-1.71-1.28" transform="translate(-180.5 -47.57)"></path><path class="cls-16" d="M227.49,62.38c0-.71.76-1.28,1.71-1.28h2.72c1,0,1.71.57,1.71,1.28s-.76,1.28-1.71,1.28H229.2C228.25,63.66,227.49,63.09,227.49,62.38Z" transform="translate(-180.5 -47.57)"></path><polygon class="cls-11" points="50.26 35.3 50.26 35.3 50.26 34.1 44.98 35.3 50.26 35.3"></polygon><polygon class="cls-11" points="50.26 35.3 50.26 35.3 50.26 36.51 55.54 35.3 50.26 35.3"></polygon><polygon class="cls-2" points="50.26 35.3 50.26 35.3 50.26 36.51 44.98 35.3 50.26 35.3"></polygon><polygon class="cls-2" points="33.22 38.08 33.22 38.08 33.37 36.8 38.77 36.41 33.22 38.08"></polygon><polygon class="cls-11" points="33.22 38.08 33.22 38.08 33.75 39.06 38.77 36.41 33.22 38.08"></polygon><polygon class="cls-2" points="67.17 39.06 67.17 39.06 67.01 37.79 61.61 37.4 67.17 39.06"></polygon><polygon class="cls-11" points="67.17 39.06 67.17 39.06 66.64 40.04 61.61 37.4 67.17 39.06"></polygon></g></svg>